<?xml version="1.0" encoding="utf-8"?>
<!-- Generator: Adobe Illustrator 26.0.3, SVG Export Plug-In . SVG Version: 6.00 Build 0)  -->
<svg version="1.0" id="Layer_1" xmlns="http://www.w3.org/2000/svg" xmlns:xlink="http://www.w3.org/1999/xlink" x="0px" y="0px"
	 viewBox="0 0 926.5 600.9" style="enable-background:new 0 0 926.5 600.9;" xml:space="preserve">
<style type="text/css">
	.st0{fill:#E5E300;}
	.st1{fill:#44AF35;}
	.st2{fill:#EA6011;}
	.st3{fill:#CA0726;}
	.st4{fill:#93252A;}
	.st5{fill:none;}
	.st6{fill:#A53E91;}
	.st7{fill:#00A6E9;}
	.st8{fill:#425AA6;}
	.st9{fill:#000F9F;}
</style>
<path class="st0" d="M156.2,343.1L156.2,343.1c7.7,1.7,16.7,10.4,20.8,22.9v-0.1c3.2,6,11.6,3.9,11.6,3.9c-3.4-3.1-5.9-7-7.3-11.3
	c0,0,2.8,6.5,14.1,6.5c-3.4-4.2-7.6-7.8-10.2-15.8c-1.5-5.4-2.2-11-2.2-16.5C177,339.7,166.1,345.2,156.2,343.1z"/>
<path class="st1" d="M176.8,330.8c11.2-0.7,25.1-9.5,36-20.6c-10.7-3.7-23.1-5-35.2,0.7c-10.2,4.9-16.5,14-20.5,22.4
	c-0.5,3.1-0.8,6.4-1,9.8c9.9,2.1,20.9-3.4,26.7-10.5c0-0.2,0-0.4,0-0.5c-3.2,0.2-6.5-0.3-9.6-1.4
	C174.5,330.7,175.7,330.8,176.8,330.8z"/>
<path class="st2" d="M156.2,343.2v1.4c0,1.3-0.1,2.7-0.1,4v0.9c0,2.6,0.2,5.2,0.5,7.8c0.3,2.6,0.7,5,1.2,7.4c1.5,7.1,4,14,7.4,20.4
	c0.2-3.4,0.9-6.7,2.1-9.8c-1-1.5-1.9-8-2.2-10.7v-0.4c-0.2-1.7-0.2-2.8,0.1-1.6c0.2,0.8,0.5,1.5,0.8,2.3c4,10,14.2,13.6,14.2,13.6
	c-1-1.8-1.8-3.7-2.3-5.7c-0.6-2.3-0.9-4.6-0.9-6.9C172.8,353.5,163.9,344.8,156.2,343.2z"/>
<path class="st2" d="M217.7,404.8c0,0,0.4-0.8,0.8-1.3c0.3-0.4,0.7-0.7,1.1-0.9c-0.6-0.2-1.3-0.3-1.9-0.3c-0.6,0.1-1.2,0.2-1.7,0.5
	c-0.5-0.5-1-1-1.6-1.4c-1-0.6-2.1-1-3.2-1.3c0.7,0.7,1.3,1.5,1.8,2.3c0.4,0.6,0.6,1.2,0.8,1.9c-0.4,0.6-0.8,1-1.4,1.4
	c-0.6,0.4-1.3,0.7-2,0.9c0.9,0.3,1.7,0.6,2.6,0.8c0.7,0,1.3,0,2-0.1c0.2,0.7,0.5,1.4,0.9,2c0.4,0.7,1,1.3,1.7,1.8v-1.7
	c0-0.5,0.1-0.9,0.2-1.4c0.7,0.3,1.4,0.4,2.1,0.3c0.9-0.2,1.8-0.5,2.6-1.1c0,0-1.8-0.6-2.5-0.9C219.3,405.9,218.5,405.4,217.7,404.8z
	"/>
<path class="st2" d="M204.4,401.2c1.3,0.5,2.5,1.1,3.6,1.8c-0.6-1.4-1.3-2.6-2.3-3.8c-0.8-0.9-1.9-1.6-3-2.1
	c0.5-0.8,0.8-1.7,0.9-2.6c0.1-1.5,0.1-3.1-0.1-4.6c-0.5,0.9-1.2,1.8-1.9,2.5c-0.5,0.4-1,0.8-1.5,1.1c-0.7-1-1.6-1.8-2.5-2.6
	c-1.1-0.8-2.5-1.1-3.8-0.9c1,0.9,1.8,1.9,2.2,3.1c0.3,0.9,0.5,1.7,0.6,2.6c-0.9,1.2-1.8,2.6-2.4,4c-0.5,1.2-0.7,2.5-0.6,3.8
	c-0.1-1.3,3.1-2.4,4.2-2.4c0.6,1.7,1.5,3.3,2.7,4.7c1.6,1.8,4,2.6,6.3,2.4c-1.4-1.1-2.6-2.4-3.7-3.8c-1.5-2.7-1.3-3.8-1.3-3.8
	C202.6,400.9,203.5,401,204.4,401.2z"/>
<path class="st2" d="M182.9,391.5c1.3-2.2,2.3-4.6,2.8-7.1c-2.6,2.6-7.7,2.4-7.7,2.4c-1.4-0.9-2.7-1.9-3.9-3.1c-1.4-1.4-3-3.4-3-3.4
	c-0.1,1.6-0.1,3.2,0,4.8c0.2,1.4,0.5,2.8,0.9,4.2c-0.5,0.4-1.1,0.7-1.7,0.8c-1,0.2-2,0.3-3,0.2c0.8,1.3,1.9,2.4,3.2,3.1
	c0.8,0.2,1.6,0.4,2.4,0.4c-0.1,1.4,0.2,2.9,0.9,4.2c1.1,1.8,2.9,3,5,3.2c-1.6-0.1-2-4.2-1.5-5.2c-0.4,0.9,4.7,1.3,5,1.3
	c2.9,0.1,5.8-0.7,8.3-2.3c-1.8-0.2-3.6-0.7-5.3-1.4C184.4,392.9,183.6,392.2,182.9,391.5z"/>
<path class="st2" d="M191.5,387.6c2,0,3.9-0.5,5.7-1.3c1.1-0.6,2-1.6,2.5-2.8c1.4,0.7,2.7,1.5,3.9,2.5c1.4,1.3,2.6,2.8,3.6,4.5
	c-0.1-4.3-1.9-8.4-5-11.5c0.5-0.4,1.1-0.6,1.7-0.7c0.8-0.2,1.7-0.2,2.6,0c-1-1.1-2.2-1.9-3.6-2.3c-1-0.2-2.1-0.4-3.1-0.4
	c-1-1.1-2.2-2.1-3.4-3c-0.4-0.4-5.2-2.6-5.2-2.7c0,0.7,1.8,6,1.4,6.1c-2.7,0.6-5.4,0.7-8.1,0.2c1.3,1.5,3,2.7,4.8,3.5
	c1.2,0.7,2.5,1.1,3.8,1.3c0.1,1.1,0,2.3-0.3,3.4C192.4,385.6,192,386.6,191.5,387.6z"/>
<path class="st3" d="M176.5,285.9c-5.1-0.1-10.3,0.2-15.4,0.7c5.6,2.8,20.5,10.3,31.6,4.8c-2.3,3-8.2,5.8-18.2,2.2l0,0
	c-0.3,0.3-2.7,3.4-2.8,3.6c5.6,4,13,4.6,19.2,1.8c10-4.3,14.8-15.8,10.8-25.9c-0.3-0.7-0.6-1.5-1-2.2c-0.4-0.7-0.9-1.4-1.4-2
	l1.1-0.2c5.5-1,11.1-0.1,16,2.4c2.2-9.7,9.9-17.2,19.6-19.3c-2.9-0.4-5.9-0.4-8.9,0c-11.4,1.5-22.1,6.4-30.8,14
	c1.8-2.6,3.9-5,6.3-7.1c-18.3-24.3-28.7-53.4-32.4-65.8c-1.1-3.7-2.7-3.7-3.2,0s-1.2,8.8-1.6,14.7c1.7,3.9,3.6,7.7,5.8,11.3
	c-2.5-3.1-4.4-5.6-6-7.6c-0.1,3.9-0.2,8,0,12.3c3,5.5,6.5,10.8,10.4,15.8c0,0-4.5-4.7-9.8-9.8c0.6,6.1,1.8,12.1,3.5,17.9
	c1.5,1.2,8.1,5,8.1,5c-36.9-14.5-66.5-31.9-81.4-42.1c-4.2-2.9-5.5-1.1-3.4,2.4c1.1,1.8,2.4,4,4,6.5c13.1,17.9,25.2,21.8,25.2,21.8
	s-6-1.9-13.2-4.2c17.4,22.2,39.5,28.1,39.5,28.1s-10.6-2.1-18.8-3.2C152.8,283.4,171.9,285.6,176.5,285.9z"/>
<path class="st4" d="M216.6,270.9c-0.2,0.9-0.4,1.9-0.5,2.8c1.2,0,2.5-0.2,3.7-0.4l0.5-0.1c6.6-1.3,12.5-5.2,16.4-10.7
	c2.1-2.9,3.5-6.2,4.3-9.7c-1.6-0.6-3.2-1-4.9-1.2C226.5,253.6,218.9,261.2,216.6,270.9L216.6,270.9z"/>
<path class="st5" d="M241.4,263.8c-1,0.8-0.7,2.8,0.6,4.2s3.1,2,4.1,1.2s0.7-2.8-0.6-4.2S242.4,263,241.4,263.8z"/>
<path class="st6" d="M278.4,308.3c-1.2-1.7-10.9-14.9-14.9-20s-5.6-7.6-7-14.8c-1.2-7.1-4.9-13.5-10.6-17.9
	c-1.5-1.1-3.1-2.1-4.8-2.8c-0.8,3.5-2.2,6.8-4.3,9.7c-3.9,5.6-9.8,9.4-16.5,10.7c3.8,2.8,6.9,6.5,9,10.7c8.7-4.3,17.2-5.1,26,1
	c8.8,6.1,19.2,23,21,25.2S280,310.6,278.4,308.3z M246.3,269.2c-1,0.8-2.8,0.3-4.1-1.2s-1.6-3.4-0.6-4.2s2.8-0.3,4.1,1.2
	S247.1,268.4,246.3,269.2L246.3,269.2z"/>
<path class="st7" d="M224.4,295.7l-1.2,1.9C223.6,297,224,296.4,224.4,295.7z"/>
<path class="st7" d="M220.3,290.7c-1.5,0.9-3,1.9-4.4,3c1.2-1.4,2.5-2.6,4-3.7c-1-1.8-1.9-3.7-2.6-5.6c-1.1-3.5-1.4-7.1-1-10.7
	c0.1-0.9,0.3-1.9,0.5-2.8c-4.9-2.6-10.5-3.4-16-2.4l-1.1,0.2c0.5,0.6,1,1.3,1.4,2c0.4,0.7,0.8,1.4,1.1,2.2
	c3.9,10.2-0.9,21.6-11,25.9c-6.3,2.9-13.7,2.2-19.4-1.8c-7.7,10.7-12.6,23.2-14.5,36.2c4-8.5,10.3-17.6,20.5-22.4
	c12-5.8,24.4-4.4,35.2-0.7c3.8-3.9,7.3-8.1,10.3-12.6l1.4-2.1C223,294.1,221.6,292.5,220.3,290.7z"/>
<path class="st7" d="M224.5,295.6l-0.1,0.1L224.5,295.6z"/>
<path class="st7" d="M224.5,295.6l-1.4,2.1l0,0l1.3-1.9L224.5,295.6L224.5,295.6z"/>
<path class="st8" d="M224.5,295.6L224.5,295.6c1.9-3,3.4-6.2,4.7-9.5c-3.1,1.3-6,2.9-8.9,4.6C221.6,292.5,223,294.1,224.5,295.6z"/>
<path class="st8" d="M224.5,295.6L224.5,295.6c-1.6-1.5-3-3.1-4.2-4.9l0,0C221.6,292.5,223,294.1,224.5,295.6z"/>
<path class="st8" d="M220.3,273.2l-0.5,0.1c-1.2,0.2-2.5,0.4-3.7,0.4c-0.4,3.6-0.1,7.2,1,10.7c0.7,1.9,1.6,3.8,2.6,5.6
	c3-2.3,6.2-4.3,9.5-6C227.2,279.7,224.1,276.1,220.3,273.2z"/>
<path class="st9" d="M464.1,269.9h-50v77.8h50.3c16.8,0,29.1-2.2,37.3-8.2s12.2-15.9,12.2-30.7C513.9,278.9,498.3,269.9,464.1,269.9
	z M464.4,336.2h-29.2l0.1-55l29,0.1h0.2c15.8,0.1,25.4,7.1,25.5,27.5C490,326.5,480.3,336.1,464.4,336.2z M718.1,272.9H617v13.1
	h39.1v61h23.5v-54.9c-0.2-1.6,0.1-3.3,0.8-4.8c0.5-0.7,1.3-1.2,3.7-1.2h34L718.1,272.9z M354.1,272.1h-24.6l-40.3,75h15.6l7.8-14.6
	h57l8.2,14.6h29.6l-37.6-67.5C366.4,273.4,364.6,272.1,354.1,272.1L354.1,272.1z M318.5,320.3l18.7-35.9h6c1.7,0,3.3,1,4,2.5
	l17.6,33.5L318.5,320.3z M580.5,272.1h-24.6l-40.3,75h15.6l7.9-14.6h57l8.2,14.6h29.6l-37.6-67.5
	C592.8,273.5,590.9,272.1,580.5,272.1L580.5,272.1z M544.8,320.3l18.8-35.9h6c1.7,0,3.3,1,4,2.5l17.6,33.4H544.8z M783.1,279.6
	c-3.4-6.1-5.3-7.5-15.7-7.5h-24.6l-40.3,75H718l7.9-14.6h57l8.2,14.6h29.6L783.1,279.6z M730.3,320.3l18.7-35.9h6c1.7,0,3.3,1,4,2.5
	l17.6,33.4L730.3,320.3z"/>
<path class="st9" d="M825.6,269.9c1.6,0,3.1,0.4,4.5,1.2c1.4,0.8,2.6,2,3.4,3.4c0.8,1.4,1.2,3,1.2,4.6c0,1.6-0.4,3.2-1.2,4.5
	c-0.8,1.4-2,2.6-3.4,3.4c-2.8,1.6-6.3,1.6-9.1,0c-1.4-0.8-2.6-2-3.4-3.4c-1.6-2.8-1.6-6.3,0-9.1c0.8-1.4,2-2.6,3.4-3.4
	C822.5,270.3,824,269.9,825.6,269.9z M825.6,271.7c-1.3,0-2.5,0.3-3.6,0.9c-1.2,0.6-2.1,1.6-2.7,2.7c-0.7,1.1-1,2.4-1,3.7
	c0,1.3,0.4,2.5,1,3.7c0.6,1.2,1.6,2.1,2.7,2.8c2.3,1.3,5.1,1.3,7.3,0c1.2-0.7,2.1-1.6,2.7-2.8c1.3-2.3,1.3-5.1,0-7.4
	c-0.7-1.2-1.6-2.1-2.8-2.7C828.1,272.1,826.9,271.7,825.6,271.7L825.6,271.7z M821.4,284v-9.8h5.1c0.5,0,1,0.2,1.5,0.4
	c0.4,0.2,0.7,0.5,0.9,0.9c0.6,1,0.5,2.3-0.3,3.2c-0.5,0.5-1.2,0.8-1.9,0.9c0.2,0.1,0.5,0.2,0.7,0.4c0.2,0.2,0.5,0.5,0.7,0.7
	c0.2,0.4,0.5,0.8,0.7,1.2l1.1,2h-2.4l-0.8-1.6c-0.3-0.7-0.8-1.4-1.4-2c-0.4-0.3-0.9-0.4-1.4-0.4h-0.5v4.1L821.4,284z M823.4,278.4
	h0.8c0.7,0,1.4,0,2.1-0.1c0.3-0.1,0.5-0.2,0.7-0.5c0.1-0.2,0.2-0.5,0.2-0.8c0-0.3-0.1-0.5-0.2-0.7c-0.2-0.2-0.4-0.4-0.7-0.5
	c-0.7-0.1-1.4-0.2-2.1-0.1h-0.8L823.4,278.4z"/>
</svg>
